<?xml version="1.0" encoding="UTF-8"?>
<svg width="256px" height="256px" viewBox="0 0 256 256" version="1.1" xmlns="http://www.w3.org/2000/svg" xmlns:xlink="http://www.w3.org/1999/xlink">
    <!-- Generator: Sketch 53.2 (72643) - https://sketchapp.com -->
    <title>Slice 1</title>
    <desc>Created with Sketch.</desc>
    <defs>
        <radialGradient cx="-1.11022302e-14%" cy="50%" fx="-1.11022302e-14%" fy="50%" r="119.08261%" id="radialGradient-1">
            <stop stop-color="#FFFFFF" stop-opacity="0.0335394586" offset="0%"></stop>
            <stop stop-color="#6C9CEA" offset="100%"></stop>
        </radialGradient>
    </defs>
    <g id="Page-1" stroke="none" stroke-width="1" fill="none" fill-rule="evenodd">
        <rect id="Rectangle" fill="#FFFFFF" x="0" y="0" width="256" height="256"></rect>
        <rect id="Rectangle" fill="url(#radialGradient-1)" x="0" y="0" width="256" height="256"></rect>
        <g id="common-icon" transform="translate(32.000000, 65.000000)" fill-rule="nonzero">
            <path d="M54.8254157,0.431866301 C29.5643696,4.03937252 9.37043229,21.6306179 2.17960353,46.3624905 C-0.726534512,56.3668082 -0.726534512,70.5736958 2.17960353,80.5780134 C7.24671603,97.9832975 18.3496537,111.595125 34.3706711,120.000246 C43.8342451,124.983808 54.5646047,127.364018 65.7793169,126.954927 C68.8717459,126.843347 72.8583711,126.471439 74.6840257,126.099532 L78,125.467296 L75.2428984,123.049895 C61.1220444,110.553787 52.4408885,95.0824199 48.9758814,76.3010731 C47.9699069,70.9456036 47.9699069,55.9949003 48.9758814,50.6394309 C52.4408885,31.858084 61.1220444,16.3867134 75.2428984,3.8906131 L78,1.47321202 L74.6840257,0.803777878 C70.0640076,-0.088800981 59.85527,-0.27475491 54.8254157,0.43187002 L54.8254157,0.431866301 Z" id="svg_2" fill="#0082FB"></path>
            <path d="M121.742121,0.355794656 C120.363894,0.541674998 118.27793,0.913435681 117.123202,1.13649581 L115.037249,1.6197847 L118.501429,4.70539837 C132.916908,17.3824377 142.117475,35.0038904 144.538678,54.6700342 C145.17192,59.5401029 144.83668,71.8453778 143.979939,76.5295624 C140.627503,95.0060721 131.836667,110.620021 117.756444,123.074004 L115,125.490448 L118.315183,126.122434 C125.876785,127.572297 137.237818,127.200536 145.022927,125.193032 C167.521493,119.467921 185.401152,101.697764 191.100289,79.5036479 C193.633237,69.5404541 193.633237,57.4954154 191.100289,47.5322291 C189.200572,40.1713676 185.177656,31.6952203 180.707741,25.7842291 C171.656168,13.776359 159.252147,5.44891974 145.022927,1.84283739 C138.467048,0.169914315 128.260747,-0.462078847 121.742121,0.355794656 Z" id="svg_3" fill="#0082FB"></path>
            <path d="M94.4017573,11.1910833 C79.3715938,21.0324064 69.4014629,36.6299751 66.4778944,54.8642793 C65.8407019,58.6893974 65.8407019,69.2363173 66.4778944,73.0614428 C69.4389446,91.5928362 80.046268,107.85888 95.3013142,117.328832 L97.9999963,119 L100.736167,117.328832 C115.953728,107.85888 126.561052,91.5928362 129.522106,73.0614428 C130.159298,69.2363173 130.159298,58.6893974 129.522106,54.8642793 C127.04831,39.303844 119.439533,25.67454 107.782722,15.7960835 C105.159004,13.5678594 98.5622217,9 97.9999963,9 C97.8500732,9 96.2383566,10.0027008 94.4017573,11.191087 L94.4017573,11.1910833 Z" id="svg_4" fill="#0164E0"></path>
        </g>
    </g>
</svg>